<?xml version="1.0" encoding="UTF-8" standalone="no"?>
<svg
   xmlns:dc="http://purl.org/dc/elements/1.1/"
   xmlns:cc="http://creativecommons.org/ns#"
   xmlns:rdf="http://www.w3.org/1999/02/22-rdf-syntax-ns#"
   xmlns:svg="http://www.w3.org/2000/svg"
   xmlns="http://www.w3.org/2000/svg"
   xmlns:sodipodi="http://sodipodi.sourceforge.net/DTD/sodipodi-0.dtd"
   xmlns:inkscape="http://www.inkscape.org/namespaces/inkscape"
   width="2160"
   height="1080"
   viewBox="0 0 609.59998 304.80002"
   version="1.1"
   id="svg2"
   inkscape:version="0.47 r22583"
   sodipodi:docname="solacryl_cover.svg">
  <metadata
     id="metadata27">
    <rdf:RDF>
      <cc:Work
         rdf:about="">
        <dc:format>image/svg+xml</dc:format>
        <dc:type
           rdf:resource="http://purl.org/dc/dcmitype/StillImage" />
        <dc:title />
      </cc:Work>
    </rdf:RDF>
  </metadata>
  <defs
     id="defs25">
    <inkscape:perspective
       sodipodi:type="inkscape:persp3d"
       inkscape:vp_x="0 : 355.65765 : 1"
       inkscape:vp_y="0 : 1000 : 0"
       inkscape:vp_z="538.33112 : 355.65765 : 1"
       inkscape:persp3d-origin="269.16556 : 237.1051 : 1"
       id="perspective29" />
    <inkscape:perspective
       id="perspective2951"
       inkscape:persp3d-origin="0.5 : 0.33333333 : 1"
       inkscape:vp_z="1 : 0.5 : 1"
       inkscape:vp_y="0 : 1000 : 0"
       inkscape:vp_x="0 : 0.5 : 1"
       sodipodi:type="inkscape:persp3d" />
    <inkscape:perspective
       id="perspective4168"
       inkscape:persp3d-origin="0.5 : 0.33333333 : 1"
       inkscape:vp_z="1 : 0.5 : 1"
       inkscape:vp_y="0 : 1000 : 0"
       inkscape:vp_x="0 : 0.5 : 1"
       sodipodi:type="inkscape:persp3d" />
  </defs>
  <sodipodi:namedview
     pagecolor="#ffffff"
     bordercolor="#666666"
     borderopacity="1"
     objecttolerance="10"
     gridtolerance="10"
     guidetolerance="10"
     inkscape:pageopacity="0"
     inkscape:pageshadow="2"
     inkscape:window-width="1920"
     inkscape:window-height="1005"
     id="namedview23"
     showgrid="false"
     units="in"
     inkscape:zoom="0.98613079"
     inkscape:cx="585.39717"
     inkscape:cy="637.89351"
     inkscape:window-x="0"
     inkscape:window-y="24"
     inkscape:window-maximized="1"
     inkscape:current-layer="svg2" />
  <path
     style="fill:none;stroke:#000000;stroke-width:0.34999999;stroke-miterlimit:4;stroke-dasharray:none"
     d="m 19.981577,15.55971 136.250003,0 a 6.35,6.35 0 0 1 6.35,6.35 l 0,185.07 a 6.35,6.35 0 0 1 -6.35,6.35 l -136.250003,0 a 6.35,6.35 0 0 1 -6.35,-6.35 l 0,-185.07 a 6.35,6.35 0 0 1 6.35,-6.35"
     id="Sketch" />
  <circle
     sodipodi:ry="1.4732"
     sodipodi:rx="1.4732"
     sodipodi:cy="87.629997"
     sodipodi:cx="-63.220001"
     d="m -61.746801,87.629997 c 0,0.813626 -0.659574,1.4732 -1.4732,1.4732 -0.813626,0 -1.4732,-0.659574 -1.4732,-1.4732 0,-0.813626 0.659574,-1.4732 1.4732,-1.4732 0.813626,0 1.4732,0.659574 1.4732,1.4732 z"
     id="circle7"
     style="fill:none;stroke:#000000;stroke-width:0.34999999;stroke-miterlimit:4;stroke-dasharray:none"
     r="1.4732"
     cy="87.629997"
     cx="-63.220001"
     transform="matrix(1,0,0,-1,88.106577,114.44471)" />
  <circle
     sodipodi:ry="1.4732"
     sodipodi:rx="1.4732"
     sodipodi:cy="87.629997"
     sodipodi:cx="63.220001"
     d="m 64.693201,87.629997 c 0,0.813626 -0.659574,1.4732 -1.4732,1.4732 -0.813626,0 -1.4732,-0.659574 -1.4732,-1.4732 0,-0.813626 0.659574,-1.4732 1.4732,-1.4732 0.813626,0 1.4732,0.659574 1.4732,1.4732 z"
     id="circle9"
     style="fill:none;stroke:#000000;stroke-width:0.34999999;stroke-miterlimit:4;stroke-dasharray:none"
     r="1.4732"
     cy="87.629997"
     cx="63.220001"
     transform="matrix(1,0,0,-1,88.106577,114.44471)" />
  <g
     id="g4200">
    <circle
       transform="matrix(1,0,0,-1,88.106577,114.44471)"
       cx="-63.220001"
       cy="-87.629997"
       r="1.4732"
       style="fill:none;stroke:#000000;stroke-width:0.34999999;stroke-miterlimit:4;stroke-dasharray:none"
       id="circle11"
       d="m -61.746801,-87.629997 c 0,0.813626 -0.659574,1.4732 -1.4732,1.4732 -0.813626,0 -1.4732,-0.659574 -1.4732,-1.4732 0,-0.813626 0.659574,-1.4732 1.4732,-1.4732 0.813626,0 1.4732,0.659574 1.4732,1.4732 z"
       sodipodi:cx="-63.220001"
       sodipodi:cy="-87.629997"
       sodipodi:rx="1.4732"
       sodipodi:ry="1.4732" />
    <circle
       transform="matrix(1,0,0,-1,88.106577,114.44471)"
       cx="63.220001"
       cy="-87.629997"
       r="1.4732"
       style="fill:none;stroke:#000000;stroke-width:0.34999999;stroke-miterlimit:4;stroke-dasharray:none"
       id="circle13"
       d="m 64.693201,-87.629997 c 0,0.813626 -0.659574,1.4732 -1.4732,1.4732 -0.813626,0 -1.4732,-0.659574 -1.4732,-1.4732 0,-0.813626 0.659574,-1.4732 1.4732,-1.4732 0.813626,0 1.4732,0.659574 1.4732,1.4732 z"
       sodipodi:cx="63.220001"
       sodipodi:cy="-87.629997"
       sodipodi:rx="1.4732"
       sodipodi:ry="1.4732" />
  </g>
  <circle
     sodipodi:ry="1.78"
     sodipodi:rx="1.78"
     sodipodi:cy="70.885002"
     sodipodi:cx="-35.349998"
     d="m -33.569999,70.885002 c 0,0.983067 -0.796933,1.78 -1.779999,1.78 -0.983067,0 -1.78,-0.796933 -1.78,-1.78 0,-0.983067 0.796933,-1.78 1.78,-1.78 0.983066,0 1.779999,0.796933 1.779999,1.78 z"
     id="circle15"
     style="fill:none;stroke:#000000;stroke-width:0.34999999;stroke-miterlimit:4;stroke-dasharray:none"
     r="1.78"
     cy="70.885002"
     cx="-35.349998"
     transform="matrix(1,0,0,-1,88.106577,114.44471)" />
  <circle
     sodipodi:ry="1.78"
     sodipodi:rx="1.78"
     sodipodi:cy="70.885002"
     sodipodi:cx="-20.35"
     d="m -18.57,70.885002 c 0,0.983067 -0.796934,1.78 -1.78,1.78 -0.983067,0 -1.78,-0.796933 -1.78,-1.78 0,-0.983067 0.796933,-1.78 1.78,-1.78 0.983066,0 1.78,0.796933 1.78,1.78 z"
     id="circle17"
     style="fill:none;stroke:#000000;stroke-width:0.34999999;stroke-miterlimit:4;stroke-dasharray:none"
     r="1.78"
     cy="70.885002"
     cx="-20.35"
     transform="matrix(1,0,0,-1,88.106577,114.44471)" />
  <circle
     sodipodi:ry="1.78"
     sodipodi:rx="1.78"
     sodipodi:cy="70.885002"
     sodipodi:cx="20.35"
     d="m 22.13,70.885002 c 0,0.983067 -0.796933,1.78 -1.78,1.78 -0.983066,0 -1.78,-0.796933 -1.78,-1.78 0,-0.983067 0.796934,-1.78 1.78,-1.78 0.983067,0 1.78,0.796933 1.78,1.78 z"
     id="circle19"
     style="fill:none;stroke:#000000;stroke-width:0.34999999;stroke-miterlimit:4;stroke-dasharray:none"
     r="1.78"
     cy="70.885002"
     cx="20.35"
     transform="matrix(1,0,0,-1,88.106577,114.44471)" />
  <circle
     sodipodi:ry="1.78"
     sodipodi:rx="1.78"
     sodipodi:cy="70.885002"
     sodipodi:cx="35.349998"
     d="m 37.129998,70.885002 c 0,0.983067 -0.796933,1.78 -1.78,1.78 -0.983066,0 -1.779999,-0.796933 -1.779999,-1.78 0,-0.983067 0.796933,-1.78 1.779999,-1.78 0.983067,0 1.78,0.796933 1.78,1.78 z"
     id="circle21"
     style="fill:none;stroke:#000000;stroke-width:0.34999999;stroke-miterlimit:4;stroke-dasharray:none"
     r="1.78"
     cy="70.885002"
     cx="35.349998"
     transform="matrix(1,0,0,-1,88.106577,114.44471)" />
  <text
     xml:space="preserve"
     style="font-size:3.38666677px;font-style:normal;font-weight:normal;fill:#000000;fill-opacity:1;stroke:none;font-family:Bitstream Vera Sans"
     x="-88.076813"
     y="191.89369"
     id="text3289"
     transform="scale(-1,1)"><tspan
       sodipodi:role="line"
       id="tspan3291"
       x="-86.046135"
       y="191.89369"
       style="font-size:6.77333355px;font-style:normal;font-variant:normal;font-weight:bold;font-stretch:normal;text-align:center;text-anchor:middle;fill:#ff0000;font-family:Liberation Mono;-inkscape-font-specification:Liberation Mono Bold">IO Rodeo </tspan><tspan
       sodipodi:role="line"
       x="-88.076813"
       y="200.36035"
       style="font-size:6.77333355px;font-style:normal;font-variant:normal;font-weight:bold;font-stretch:normal;text-align:center;text-anchor:middle;fill:#ff0000;font-family:Liberation Mono;-inkscape-font-specification:Liberation Mono Bold"
       id="tspan3293">UV-transilluminator</tspan><tspan
       sodipodi:role="line"
       x="-88.076813"
       y="208.82703"
       style="font-size:6.77333355px;font-style:normal;font-variant:normal;font-weight:bold;font-stretch:normal;text-align:center;text-anchor:middle;fill:#ff0000;font-family:Liberation Mono;-inkscape-font-specification:Liberation Mono Bold"
       id="tspan3295" /></text>
  <rect
     style="fill:none;stroke:#000000;stroke-width:0.28222227px;stroke-linecap:butt;stroke-linejoin:miter;stroke-opacity:1"
     id="rect2827"
     width="89.717789"
     height="89.717781"
     x="170.28392"
     y="17.896296"
     rx="606.6427"
     ry="0" />
</svg>
